HIERARCHY
ROOT Hips
{
	OFFSET 0.327225 85.456291 8.060652
	CHANNELS 6 Xposition Yposition Zposition Zrotation Yrotation Xrotation 
	JOINT Spine
	{
		OFFSET 0.000000 8.814246 -2.080107
		CHANNELS 3 Zrotation Yrotation Xrotation
		JOINT Spine1
		{
			OFFSET -0.000000 8.844141 0.000000
			CHANNELS 3 Zrotation Yrotation Xrotation
			JOINT Spine2
			{
				OFFSET 0.000000 11.682268 0.000000
				CHANNELS 3 Zrotation Yrotation Xrotation
				JOINT Spine3
				{
					OFFSET 0.000000 11.746700 0.000000
					CHANNELS 3 Zrotation Yrotation Xrotation
					JOINT Neck
					{
						OFFSET 0.000000 17.658264 0.000000
						CHANNELS 3 Zrotation Yrotation Xrotation
						JOINT Neck1
						{
							OFFSET 0.000000 5.101515 0.000000
							CHANNELS 3 Zrotation Yrotation Xrotation
							JOINT Head
							{
								OFFSET -0.000000 5.101515 -0.000000
								CHANNELS 3 Zrotation Yrotation Xrotation
								JOINT HeadEnd
								{
									OFFSET 0.000000 11.655085 0.000000
									CHANNELS 3 Zrotation Yrotation Xrotation
									End Site
									{
										OFFSET 0.000000 0.000000 0.000000
									}
								}
							}
						}
					}
					JOINT RightShoulder
					{
						OFFSET -2.625389 11.175210 -0.000000
						CHANNELS 3 Zrotation Yrotation Xrotation
						JOINT RightArm
						{
							OFFSET 0.000000 10.434715 0.000000
							CHANNELS 3 Zrotation Yrotation Xrotation
							JOINT RightForeArm
							{
								OFFSET -0.000000 29.628420 -0.000000
								CHANNELS 3 Zrotation Yrotation Xrotation
								JOINT RightHand
								{
									OFFSET 0.000000 22.857611 -0.000000
									CHANNELS 3 Zrotation Yrotation Xrotation
									JOINT RightHandThumb1
									{
										OFFSET -2.867323 3.959563 2.944291
										CHANNELS 3 Zrotation Yrotation Xrotation
										JOINT RightHandThumb2
										{
											OFFSET -0.000000 3.350399 0.000000
											CHANNELS 3 Zrotation Yrotation Xrotation
											JOINT RightHandThumb3
											{
												OFFSET -0.000000 3.756509 0.000000
												CHANNELS 3 Zrotation Yrotation Xrotation
												JOINT RightHandThumb4
												{
													OFFSET -0.000000 3.147345 0.000000
													CHANNELS 3 Zrotation Yrotation Xrotation
													End Site
													{
														OFFSET 0.000000 0.000000 0.000000
													}
												}
											}
										}
									}
									JOINT RightHandIndex1
									{
										OFFSET -0.086752 10.030893 2.345280
										CHANNELS 3 Zrotation Yrotation Xrotation
										JOINT RightHandIndex2
										{
											OFFSET -0.000000 4.061090 -0.000000
											CHANNELS 3 Zrotation Yrotation Xrotation
											JOINT RightHandIndex3
											{
												OFFSET 0.000000 3.248873 -0.000000
												CHANNELS 3 Zrotation Yrotation Xrotation
												JOINT RightHandIndex4
												{
													OFFSET 0.000000 2.639709 -0.000000
													CHANNELS 3 Zrotation Yrotation Xrotation
													End Site
													{
														OFFSET 0.000000 0.000000 0.000000
													}
												}
											}
										}
									}
									JOINT RightHandMiddle1
									{
										OFFSET 0.104102 9.502952 0.006768
										CHANNELS 3 Zrotation Yrotation Xrotation
										JOINT RightHandMiddle2
										{
											OFFSET -0.000000 4.568727 -0.000000
											CHANNELS 3 Zrotation Yrotation Xrotation
											JOINT RightHandMiddle3
											{
												OFFSET -0.000000 3.654981 -0.000000
												CHANNELS 3 Zrotation Yrotation Xrotation
												JOINT RightHandMiddle4
												{
													OFFSET -0.000000 2.741236 -0.000000
													CHANNELS 3 Zrotation Yrotation Xrotation
													End Site
													{
														OFFSET 0.000000 0.000000 0.000000
													}
												}
											}
										}
									}
									JOINT RightHandRing1
									{
										OFFSET 0.086752 8.921708 -2.267442
										CHANNELS 3 Zrotation Yrotation Xrotation
										JOINT RightHandRing2
										{
											OFFSET -0.000000 4.061090 0.000000
											CHANNELS 3 Zrotation Yrotation Xrotation
											JOINT RightHandRing3
											{
												OFFSET 0.000000 3.654981 -0.000000
												CHANNELS 3 Zrotation Yrotation Xrotation
												JOINT RightHandRing4
												{
													OFFSET 0.000000 2.741236 -0.000000
													CHANNELS 3 Zrotation Yrotation Xrotation
													End Site
													{
														OFFSET 0.000000 0.000000 0.000000
													}
												}
											}
										}
									}
									JOINT RightHandPinky1
									{
										OFFSET -0.173504 7.976997 -4.467199
										CHANNELS 3 Zrotation Yrotation Xrotation
										JOINT RightHandPinky2
										{
											OFFSET -0.000000 3.350399 0.000000
											CHANNELS 3 Zrotation Yrotation Xrotation
											JOINT RightHandPinky3
											{
												OFFSET 0.000000 2.842763 -0.000000
												CHANNELS 3 Zrotation Yrotation Xrotation
												JOINT RightHandPinky4
												{
													OFFSET -0.000000 2.639709 0.000000
													CHANNELS 3 Zrotation Yrotation Xrotation
													End Site
													{
														OFFSET 0.000000 0.000000 0.000000
													}
												}
											}
										}
									}
									JOINT RightForeArmEnd
									{
										OFFSET 0.000000 0.000000 0.000000
										CHANNELS 3 Zrotation Yrotation Xrotation
										End Site
										{
											OFFSET 0.000000 0.000000 0.000000
										}
									}
								}
								JOINT RightArmEnd
								{
									OFFSET 0.000000 0.000000 0.000000
									CHANNELS 3 Zrotation Yrotation Xrotation
									End Site
									{
										OFFSET 0.000000 0.000000 0.000000
									}
								}
							}
						}
					}
					JOINT LeftShoulder
					{
						OFFSET 2.625389 11.175210 0.000000
						CHANNELS 3 Zrotation Yrotation Xrotation
						JOINT LeftArm
						{
							OFFSET -0.000000 10.813635 0.000000
							CHANNELS 3 Zrotation Yrotation Xrotation
							JOINT LeftForeArm
							{
								OFFSET 0.000000 28.724781 -0.000000
								CHANNELS 3 Zrotation Yrotation Xrotation
								JOINT LeftHand
								{
									OFFSET 0.644384 25.716167 -0.328871
									CHANNELS 3 Zrotation Yrotation Xrotation
									JOINT LeftHandThumb1
									{
										OFFSET 2.867323 3.959563 2.944291
										CHANNELS 3 Zrotation Yrotation Xrotation
										JOINT LeftHandThumb2
										{
											OFFSET 0.000000 3.350399 -0.000000
											CHANNELS 3 Zrotation Yrotation Xrotation
											JOINT LeftHandThumb3
											{
												OFFSET 0.000000 3.756509 0.000000
												CHANNELS 3 Zrotation Yrotation Xrotation
												JOINT LeftHandThumb4
												{
													OFFSET 0.000000 3.100000 0.000000
													CHANNELS 3 Zrotation Yrotation Xrotation
													End Site
													{
														OFFSET 0.000000 0.000000 0.000000
													}
												}
											}
										}
									}
									JOINT LeftHandIndex1
									{
										OFFSET 0.086752 10.030893 2.345280
										CHANNELS 3 Zrotation Yrotation Xrotation
										JOINT LeftHandIndex2
										{
											OFFSET 0.000000 4.061090 0.000000
											CHANNELS 3 Zrotation Yrotation Xrotation
											JOINT LeftHandIndex3
											{
												OFFSET -0.000000 3.248873 -0.000000
												CHANNELS 3 Zrotation Yrotation Xrotation
												JOINT LeftHandIndex4
												{
													OFFSET -0.000000 2.639709 -0.000000
													CHANNELS 3 Zrotation Yrotation Xrotation
													End Site
													{
														OFFSET 0.000000 0.000000 0.000000
													}
												}
											}
										}
									}
									JOINT LeftHandMiddle1
									{
										OFFSET -0.104102 9.502952 0.006768
										CHANNELS 3 Zrotation Yrotation Xrotation
										JOINT LeftHandMiddle2
										{
											OFFSET 0.000000 4.568727 0.000000
											CHANNELS 3 Zrotation Yrotation Xrotation
											JOINT LeftHandMiddle3
											{
												OFFSET -0.000000 3.654981 -0.000000
												CHANNELS 3 Zrotation Yrotation Xrotation
												JOINT LeftHandMiddle4
												{
													OFFSET -0.000000 2.741236 -0.000000
													CHANNELS 3 Zrotation Yrotation Xrotation
													End Site
													{
														OFFSET 0.000000 0.000000 0.000000
													}
												}
											}
										}
									}
									JOINT LeftHandRing1
									{
										OFFSET -0.086752 8.921708 -2.267442
										CHANNELS 3 Zrotation Yrotation Xrotation
										JOINT LeftHandRing2
										{
											OFFSET 0.000000 4.061090 0.000000
											CHANNELS 3 Zrotation Yrotation Xrotation
											JOINT LeftHandRing3
											{
												OFFSET -0.000000 3.654981 -0.000000
												CHANNELS 3 Zrotation Yrotation Xrotation
												JOINT LeftHandRing4
												{
													OFFSET -0.000000 2.741236 -0.000000
													CHANNELS 3 Zrotation Yrotation Xrotation
													End Site
													{
														OFFSET 0.000000 0.000000 0.000000
													}
												}
											}
										}
									}
									JOINT LeftHandPinky1
									{
										OFFSET 0.173504 7.976997 -4.467199
										CHANNELS 3 Zrotation Yrotation Xrotation
										JOINT LeftHandPinky2
										{
											OFFSET 0.000000 3.350399 0.000000
											CHANNELS 3 Zrotation Yrotation Xrotation
											JOINT LeftHandPinky3
											{
												OFFSET 0.000000 2.842763 0.000000
												CHANNELS 3 Zrotation Yrotation Xrotation
												JOINT LeftHandPinky4
												{
													OFFSET 0.000000 2.639709 -0.000000
													CHANNELS 3 Zrotation Yrotation Xrotation
													End Site
													{
														OFFSET 0.000000 0.000000 0.000000
													}
												}
											}
										}
									}
									JOINT LeftForeArmEnd
									{
										OFFSET 0.000000 0.000000 0.000000
										CHANNELS 3 Zrotation Yrotation Xrotation
										End Site
										{
											OFFSET 0.000000 0.000000 0.000000
										}
									}
								}
								JOINT LeftArmEnd
								{
									OFFSET 0.000000 0.000000 0.000000
									CHANNELS 3 Zrotation Yrotation Xrotation
									End Site
									{
										OFFSET 0.000000 0.000000 0.000000
									}
								}
							}
						}
					}
				}
			}
		}
	}
	JOINT RightUpLeg
	{
		OFFSET -11.289943 0.000000 -0.000000
		CHANNELS 3 Zrotation Yrotation Xrotation
		JOINT RightLeg
		{
			OFFSET -0.000000 -38.200325 -0.000000
			CHANNELS 3 Zrotation Yrotation Xrotation
			JOINT RightFoot
			{
				OFFSET -0.000000 -39.900856 0.000000
				CHANNELS 3 Zrotation Yrotation Xrotation
				JOINT RightToeBase
				{
					OFFSET 0.000000 -0.000000 15.261641
					CHANNELS 3 Zrotation Yrotation Xrotation
					JOINT RightToeBaseEnd
					{
						OFFSET -0.000000 -0.000000 7.370709
						CHANNELS 3 Zrotation Yrotation Xrotation
						End Site
						{
							OFFSET 0.000000 0.000000 0.000000
						}
					}
				}
				JOINT RightLegEnd
				{
					OFFSET 0.000000 0.000000 0.000000
					CHANNELS 3 Zrotation Yrotation Xrotation
					End Site
					{
						OFFSET 0.000000 0.000000 0.000000
					}
				}
			}
			JOINT RightUpLegEnd
			{
				OFFSET 0.000000 0.000000 0.000000
				CHANNELS 3 Zrotation Yrotation Xrotation
				End Site
				{
					OFFSET 0.000000 0.000000 0.000000
				}
			}
		}
	}
	JOINT LeftUpLeg
	{
		OFFSET 11.315661 -0.000000 0.000000
		CHANNELS 3 Zrotation Yrotation Xrotation
		JOINT LeftLeg
		{
			OFFSET -0.000000 -38.200325 -0.000000
			CHANNELS 3 Zrotation Yrotation Xrotation
			JOINT LeftFoot
			{
				OFFSET -0.000000 -39.900856 0.000000
				CHANNELS 3 Zrotation Yrotation Xrotation
				JOINT LeftToeBase
				{
					OFFSET 0.000000 -0.000000 15.261641
					CHANNELS 3 Zrotation Yrotation Xrotation
					JOINT LeftToeBaseEnd
					{
						OFFSET -0.000000 0.000000 7.539996
						CHANNELS 3 Zrotation Yrotation Xrotation
						End Site
						{
							OFFSET 0.000000 0.000000 0.000000
						}
					}
				}
				JOINT LeftLegEnd
				{
					OFFSET 0.000000 0.000000 0.000000
					CHANNELS 3 Zrotation Yrotation Xrotation
					End Site
					{
						OFFSET 0.000000 0.000000 0.000000
					}
				}
			}
			JOINT LeftUpLegEnd
			{
				OFFSET 0.000000 0.000000 0.000000
				CHANNELS 3 Zrotation Yrotation Xrotation
				End Site
				{
					OFFSET 0.000000 0.000000 0.000000
				}
			}
		}
	}
}
MOTION
Frames: 4
Frame Time: 0.016667
0.327225 85.456291 8.060652 -1.060160 -0.454608 -23.207590 2.322709 -0.297220 12.236113 0.341520 -0.185955 6.095392 -2.927263 -0.107008 18.660194 -3.766547 -0.127707 10.148421 -8.554237 3.011372 10.670642 -1.052736 0.746531 -1.072306 -1.427619 -1.392408 -19.988150 0.000000 0.000000 0.000000 91.634735 -0.442339 15.425826 54.665524 -30.476999 24.470922 -0.226760 15.539892 21.119818 5.921650 20.191023 -2.405218 13.495595 32.597275 68.996590 0.000003 0.000003 0.000009 0.000134 -0.000001 0.000005 0.000000 0.000000 0.000000 13.796139 -10.938026 1.277707 9.837293 0.396116 1.450871 9.837299 -0.105893 1.372970 0.000000 0.000000 0.000000 13.018492 -5.780196 0.547168 9.259837 0.477044 0.562421 9.259580 -0.040827 0.482464 0.000000 0.000000 0.000000 14.759333 1.948519 1.684468 10.371669 -0.929828 -0.808298 10.370477 0.055660 -0.609709 0.000000 0.000000 0.000000 15.656369 10.308870 0.915056 10.776875 -1.765082 -2.455533 10.769448 0.171573 -2.081882 0.000000 0.000000 0.000000 0.000000 0.000000 0.000000 0.000000 0.000000 0.000000 -92.594154 0.517031 10.482300 -55.364445 20.044870 9.159415 -0.966445 -10.157828 39.026314 -1.252406 -30.847612 -11.535672 -13.450125 -32.590797 68.901459 0.011028 0.011022 -0.022262 0.011023 0.011028 -0.022273 0.000000 0.000000 0.000000 -11.776063 -6.462783 0.977572 -8.183229 0.418838 -1.217398 -8.182890 -0.087328 -1.146339 0.000000 0.000000 0.000000 -11.505368 -1.486834 0.105365 -8.159037 0.488683 -0.513053 -8.158793 0.006084 -0.433014 0.000000 0.000000 0.000000 -14.670410 7.057579 0.049814 -10.405230 -0.938801 0.816612 -10.403862 0.035557 0.635699 0.000000 0.000000 0.000000 -17.068953 15.932078 -0.778814 -11.779098 -1.717910 2.681325 -11.773773 0.235106 2.277516 0.000000 0.000000 0.000000 0.000000 0.000000 0.000000 0.000000 0.000000 0.000000 -5.285096 -1.941737 14.891479 -0.561212 -0.964231 30.047485 4.622950 -4.876317 6.481491 -0.907080 1.864290 -16.513636 0.000000 0.000000 0.000000 0.000000 0.000000 0.000000 0.000000 0.000000 0.000000 4.159544 -1.943718 10.882134 0.172503 0.240085 35.792629 -0.279231 6.748767 5.369925 0.530027 -0.512076 -20.503864 0.000000 0.000000 0.000000 0.000000 0.000000 0.000000 0.000000 0.000000 0.000000 
0.281856 85.367058 7.325008 -0.746038 -0.167271 -22.489506 1.255150 -0.198587 11.963879 0.949888 -0.216175 7.074849 -3.412647 0.695549 16.619606 -2.726827 -0.132339 9.324043 -8.886164 5.190620 11.049211 -1.998189 1.348271 -1.479387 -1.454535 -0.186392 -19.163551 0.000000 0.000000 0.000000 92.177689 -0.151898 15.104446 54.703156 -28.191347 22.681194 0.259509 16.698334 19.872665 5.927681 17.308012 -0.742506 -5.505765 0.852984 47.066090 -0.000004 0.000007 12.373078 0.000011 0.000054 9.024045 0.000012 0.000003 -0.000016 15.167336 0.820702 -1.446927 9.379430 0.020885 0.208012 9.437160 0.074092 0.183522 -0.000016 -0.000004 -0.000001 13.096348 0.317666 -3.446720 8.603629 -0.017697 0.057659 8.438484 0.018066 0.061503 0.000011 -0.000045 0.000027 13.405208 -0.401615 -3.419742 9.813966 0.031085 0.014096 9.632404 -0.040201 0.006473 0.000000 0.000601 0.000007 13.484336 -1.064899 -5.421834 10.379693 -0.053949 0.358353 10.153013 -0.233035 0.232945 -0.000679 0.000006 0.000045 0.000000 0.000000 0.000000 0.000000 0.000000 0.000000 -90.401588 -0.306400 10.748716 -57.881302 21.330462 5.986118 -1.020293 -8.894376 41.127205 0.105551 -30.735420 -6.055011 5.736923 -0.839039 47.039013 0.000012 0.000021 12.716972 -0.000120 -0.000005 9.260299 0.000221 -0.000019 0.000486 -12.881597 0.797485 -1.048483 -9.030468 -0.046507 -0.174025 -9.019504 0.031987 -0.167414 0.000012 0.000392 0.000022 -13.125121 0.333728 -3.217501 -8.503882 -0.044432 -0.077041 -8.369516 0.003460 -0.060241 0.000638 -0.000042 0.000009 -15.439582 -0.386887 -3.769783 -9.526521 0.069656 0.108326 -9.515101 -0.013401 0.105302 0.000102 -0.000008 -0.000002 -16.054884 -1.132330 -5.206003 -10.091877 0.158136 0.366731 -9.869083 -0.067562 0.346502 0.000318 -0.000017 -0.000053 0.000000 0.000000 0.000000 0.000000 0.000000 0.000000 -6.941438 1.759252 13.986064 -0.430950 -0.867762 27.431904 3.783726 -4.053094 7.799229 -0.895239 1.797366 -16.949013 0.000000 0.000000 0.000000 0.000000 0.000000 0.000000 0.000000 0.000000 0.000000 3.556930 -2.678723 10.808803 0.292645 0.245741 35.834766 -0.359433 7.933490 4.800669 0.340499 -0.931144 -19.930120 0.000000 0.000000 0.000000 0.000000 0.000000 0.000000 0.000000 0.000000 0.000000 
0.274278 85.366585 7.322479 -0.744259 -0.156948 -22.492336 1.305637 -0.200758 11.998638 0.930317 -0.198686 7.138265 -3.394070 0.596508 16.561621 -2.670312 -0.135346 9.222577 -8.865890 5.205435 11.164271 -1.923879 1.426428 -1.530714 -1.478831 -0.234142 -19.218555 0.000000 0.000000 0.000000 92.166481 -0.069676 15.156144 54.804089 -28.425295 22.633821 0.258700 16.696047 19.972761 5.720705 17.370302 -1.133079 -5.496594 0.848964 47.061646 0.000002 0.000012 12.337023 0.000013 0.000053 9.018414 0.000034 0.000013 -0.000040 14.995531 0.874168 -1.863977 9.288714 0.021490 0.178030 9.361207 0.075929 0.153850 -0.000012 0.000005 -0.000009 12.960262 0.339778 -3.819348 8.512225 -0.020337 0.049821 8.349012 0.019274 0.054257 0.000031 -0.000080 0.000022 13.246223 -0.429474 -3.768327 9.663828 0.039092 0.016226 9.498499 -0.039102 0.009665 -0.000022 0.000399 -0.000015 13.348771 -1.144941 -5.658685 10.189033 -0.034079 0.338954 9.960503 -0.231667 0.217675 -0.000686 0.000010 0.000019 0.000000 0.000000 0.000000 0.000000 0.000000 0.000000 -90.517723 -0.335226 10.734453 -58.157936 21.517248 6.117325 -1.035211 -8.942724 41.079411 0.190075 -30.624107 -6.048193 5.757024 -0.845296 47.047554 0.000016 0.000036 12.749990 -0.000135 -0.000001 9.277381 0.000353 -0.000002 0.000684 -12.739758 0.854357 -1.146854 -9.046078 -0.045966 -0.143204 -9.049901 0.036148 -0.143757 0.000015 0.000422 0.000016 -13.012195 0.357831 -3.299978 -8.513352 -0.046781 -0.068187 -8.395534 0.003576 -0.052818 0.000598 -0.000038 -0.000033 -15.421598 -0.415661 -3.826250 -9.561613 0.074551 0.101318 -9.530834 -0.013564 0.099376 0.000268 0.000012 0.000004 -16.083229 -1.219210 -5.215201 -10.114047 0.169355 0.357156 -9.879925 -0.067173 0.333684 0.000355 0.000005 -0.000054 0.000000 0.000000 0.000000 0.000000 0.000000 0.000000 -6.853507 1.755200 13.836689 -0.428989 -0.858570 27.571318 3.674661 -3.922841 7.834637 -0.900675 1.774426 -16.963085 0.000000 0.000000 0.000000 0.000000 0.000000 0.000000 0.000000 0.000000 0.000000 3.514953 -2.706389 10.818550 0.296834 0.245775 35.940266 -0.325049 8.013982 4.804381 0.337111 -0.908137 -20.027691 0.000000 0.000000 0.000000 0.000000 0.000000 0.000000 0.000000 0.000000 0.000000 
0.256454 85.384148 7.336432 -0.707900 -0.145167 -22.460878 1.310356 -0.198730 11.972129 0.929461 -0.193560 7.086326 -3.375479 0.481035 16.547565 -2.620776 -0.163904 9.148713 -8.865671 5.187328 11.326497 -1.866270 1.479635 -1.519764 -1.483664 -0.265066 -19.272932 0.000000 0.000000 0.000000 92.197800 -0.053016 15.113118 54.808704 -28.551731 22.692991 0.242401 16.577688 19.956568 5.639781 17.114363 -1.309509 -5.470373 0.844316 47.052135 0.000005 0.000013 12.277030 0.000010 0.000055 8.993464 0.000034 0.000012 -0.000041 14.959630 0.891696 -2.188101 9.260375 0.022751 0.152873 9.344818 0.077514 0.129473 -0.000011 0.000004 -0.000011 12.927909 0.347349 -4.086526 8.471552 -0.021247 0.043716 8.309037 0.019608 0.048521 0.000030 -0.000092 0.000024 13.100279 -0.439252 -3.990976 9.537576 0.044741 0.014664 9.393463 -0.036959 0.009361 -0.000023 0.000174 -0.000014 13.161403 -1.172252 -5.779545 9.999682 -0.016152 0.301464 9.782040 -0.223408 0.190027 -0.000725 0.000009 0.000005 0.000000 0.000000 0.000000 0.000000 0.000000 0.000000 -90.573959 -0.338611 10.714375 -58.267036 21.535660 6.257198 -1.064696 -8.925822 41.012104 0.061379 -30.376101 -6.176764 5.768536 -0.847549 47.049591 0.000014 0.000037 12.757876 -0.000142 -0.000002 9.278629 0.000320 -0.000001 0.000773 -12.602444 0.873332 -1.199767 -9.046020 -0.045329 -0.118932 -9.058588 0.038647 -0.123715 0.000013 0.000371 0.000017 -12.908256 0.366540 -3.344434 -8.516606 -0.047477 -0.061060 -8.400787 0.003646 -0.046329 0.000644 -0.000040 -0.000059 -15.392365 -0.426593 -3.858927 -9.584054 0.076433 0.097642 -9.536133 -0.013271 0.096078 0.000435 0.000012 0.000004 -16.100454 -1.253006 -5.221241 -10.126482 0.175986 0.358430 -9.879678 -0.064462 0.329369 0.000367 0.000004 -0.000055 0.000000 0.000000 0.000000 0.000000 0.000000 0.000000 -6.818514 1.736738 13.840775 -0.426608 -0.851594 27.472017 3.577657 -3.855811 7.964383 -0.907224 1.749868 -17.016493 0.000000 0.000000 0.000000 0.000000 0.000000 0.000000 0.000000 0.000000 0.000000 3.440831 -2.712632 10.954918 0.298156 0.251548 35.695637 -0.265175 8.112241 4.940773 0.340703 -0.886940 -20.094046 0.000000 0.000000 0.000000 0.000000 0.000000 0.000000 0.000000 0.000000 0.000000 
